<?xml version="1.0" encoding="utf-8"?>
<!-- Generator: Adobe Illustrator 19.0.0, SVG Export Plug-In . SVG Version: 6.00 Build 0)  -->
<svg version="1.1" id="layer" xmlns="http://www.w3.org/2000/svg" xmlns:xlink="http://www.w3.org/1999/xlink" x="0px" y="0px"
	 viewBox="-153 -46 652 652" style="enable-background:new -153 -46 652 652;" xml:space="preserve">
<path d="M11.9,302.4v-52.6h19.3c14.5-0.2,26.5,11.4,26.7,26c0.2,14.5-11.4,26.5-26,26.7c-0.2,0-0.5,0-0.7,0H11.9z M31.2,291.9
	c8.7,0.2,15.9-6.8,16.1-15.5c0.2-8.7-6.8-15.9-15.5-16.1c-0.2,0-0.4,0-0.6,0h-8.8v31.6H31.2z M102.5,302.4
	c-14.5,0-26.3-11.8-26.3-26.3c0-14.5,11.8-26.3,26.3-26.3s26.3,11.8,26.3,26.3c0,0,0,0,0,0C128.8,290.6,117,302.4,102.5,302.4z
	 M86.7,276.1c0,8.7,7.1,15.8,15.8,15.8c8.7,0,15.8-7.1,15.8-15.8c0-8.7-7.1-15.8-15.8-15.8C93.8,260.3,86.7,267.4,86.7,276.1
	L86.7,276.1z M156.4,249.8h2.7l19,20.6l18.9-20.6h2.7l4,52.6h-10.5l-2.3-30.5l-12.8,13.9l-12.8-13.9l-2.4,30.5h-10.5L156.4,249.8z
	 M271,293.6h-27.1l-4.8,8.8h-12l30.3-55.5l30.4,55.5h-12L271,293.6z M265.2,283.1l-7.8-14.3l-7.8,14.3H265.2z M323.8,302.4h-10.5
	v-52.6h10.5L323.8,302.4z M353.6,249.8h2.8l32.3,30.8v-30.8h10.5v52.6h-2.9l-32.2-30.8v30.8h-10.5V249.8z M430.2,249.8h38.6v10.5
	h-28.1v15.8h21.1v10.5h-21.1v5.3h28.1v10.5h-38.6V249.8z M-82.3,249.6h-3.3l-19,20.6l-19.1-20.6h-3.3l-4.2,54.1h11.5l2.4-30.2
	l12.6,13.7l12.6-13.7l2.3,30.3h11.5L-82.3,249.6z M-127.7,300.5l3.6-46.7l19.5,21.1l19.5-21.1l3.6,46.8h-5.1l-2.6-34.6l-15.3,16.5
	l-15.2-16.5l-2.7,34.5H-127.7z M-20.1,249.6L-34,271.8l-13.9-22.2h-13.6l21.7,34.7v19.4h11.5v-19.4l21.8-34.7H-20.1z M-31.4,283.4
	v17.1h-5.2v-17.1l-19.2-30.6h6.1l15.6,25l15.7-25h6.1L-31.4,283.4z"/>
</svg>
