<?xml version="1.0" encoding="utf-8"?>
<!-- Generator: Adobe Illustrator 28.0.0, SVG Export Plug-In . SVG Version: 6.00 Build 0)  -->
<svg version="1.1" id="Layer_1" xmlns="http://www.w3.org/2000/svg" xmlns:xlink="http://www.w3.org/1999/xlink" x="0px" y="0px"
	 viewBox="0 0 1080 1080" style="enable-background:new 0 0 1080 1080;" xml:space="preserve">
<g>
	<path d="M194.28,548.85c-1.9-3.24-4.38-5.52-7.24-6.86s-5.9-1.9-8.95-1.33c-3.81,0.57-6.86,1.9-8.76,4.38
		c-1.9,2.29-3.24,4.95-4,7.81c-0.76,2.86-1.33,6.48-1.71,11.05c-0.38,4-0.95,7.05-1.52,9.52c-0.57,2.29-1.33,4.19-2.67,5.71
		c-1.14,1.52-2.86,2.48-5.33,2.67c-3.24,0.38-5.9-0.57-8.19-2.86c-2.48-2.29-4-6.1-4.57-11.43c-0.38-2.67-0.38-5.52,0.19-8.38
		c0.38-2.86,1.33-5.52,2.67-8l0.57-1.33l-6.1-1.9l-0.38,0.95c-1.33,2.67-2.29,5.71-3.05,9.14c-0.57,3.43-0.57,6.86-0.19,10.29
		c0.57,4.95,1.9,8.95,3.81,12c1.9,3.24,4.38,5.52,7.24,6.67c2.1,0.95,4.38,1.52,6.67,1.52c0.76,0,1.52,0,2.29-0.19
		c3.81-0.57,6.86-1.9,8.95-4.38c2.1-2.29,3.43-4.95,4.19-7.81c0.76-2.86,1.33-6.48,1.71-11.05c0.38-3.81,0.95-7.05,1.33-9.33
		c0.57-2.29,1.33-4.19,2.67-5.71c1.14-1.52,2.86-2.48,5.33-2.67c3.05-0.38,5.71,0.57,8,2.86c2.29,2.48,4,6.29,4.57,11.81
		c0.57,3.81,0.38,7.43-0.57,11.05c-0.95,3.62-2.29,6.48-4,8.76l-0.95,1.33l5.9,2.48l0.57-0.76c2.29-2.67,3.81-6.29,4.95-10.48
		c0.95-4.19,1.14-8.76,0.57-13.33C197.52,556.08,196.19,551.89,194.28,548.85z"/>
	<path d="M305.71,248.85l-13.14-14.67l12-10.67c1.14-1.14,2.48-2.29,3.62-3.81l24,5.52l5.9-5.33l-25.9-5.9
		c2.1-3.81,2.86-7.62,2.67-11.43c-0.38-4.38-2.29-8.38-5.52-12.19c-4.38-4.95-9.71-7.43-15.62-7.24c-5.9,0.19-11.81,2.86-17.71,8.19
		l-17.14,15.24l41.71,47.05L305.71,248.85z M268.38,206.57l12-10.67c4.57-4,8.95-6.1,13.14-6.29c4-0.19,7.62,1.52,10.86,5.33
		c3.24,3.62,4.57,7.43,4,11.43c-0.57,4-3.24,8.19-7.81,12.19l-12,10.67L268.38,206.57z"/>
	<polygon points="516.37,147.33 515.23,141.05 478.66,148.09 474.47,126.19 505.9,120.28 504.75,114 473.33,120.09 469.14,99.14 
		504.56,92.29 503.23,86 461.33,94 473.14,155.71 	"/>
	<path d="M839.79,266.38c3.24,0.95,6.29,1.52,9.52,1.52c2.29,0,4.57-0.19,6.86-0.76c5.33-1.33,10.29-4,14.48-8.19
		c4.38-4.19,7.24-8.95,8.76-14.29c1.52-5.33,1.33-10.86-0.19-16.19c-1.52-5.52-4.57-10.67-9.14-15.24l-17.33-18.09l-45.14,43.62
		l17.33,18.09C829.32,261.42,834.27,264.66,839.79,266.38z M816.94,239.14l36-34.67l12.38,12.95c3.62,3.81,6.29,8,7.62,12.38
		c1.33,4.38,1.33,8.57,0.19,12.76c-1.14,4.19-3.62,8-7.05,11.43c-3.43,3.43-7.43,5.71-11.62,6.67c-4.19,0.95-8.57,0.76-12.76-0.57
		c-4.38-1.52-8.38-4.19-12.19-8L816.94,239.14z"/>
	<polygon points="977.31,401.61 915.98,414.94 925.51,457.99 931.79,456.66 923.79,420.28 945.51,415.52 952.36,446.94 
		958.65,445.61 951.79,414.18 972.55,409.61 980.17,444.66 986.46,443.32 	"/>
	<path d="M968.74,623.89c-1.9-2.48-4.57-4.19-7.62-5.14c-3.62-1.14-7.05-1.14-9.9,0c-2.86,1.14-5.14,3.05-7.05,5.33
		c-1.9,2.29-4,5.33-6.48,9.33c-2.1,3.43-3.81,6.1-5.33,8c-1.33,1.71-3.05,3.05-4.95,4c-1.71,0.76-3.62,0.95-5.9,0.19
		c-3.05-0.95-4.95-2.86-5.9-6.1c-1.14-3.24-0.76-7.43,0.95-12.57c1.14-3.62,2.86-6.86,5.33-9.71c2.29-2.86,4.76-4.95,7.43-6.1
		l1.52-0.76l-4.19-4.76l-0.76,0.38c-3.05,1.52-6.1,4-8.95,7.43l0,0c-2.67,3.43-4.76,7.43-6.29,11.62c-1.52,4.76-2.1,8.95-1.71,12.57
		c0.38,3.81,1.52,6.86,3.62,9.33c1.9,2.48,4.38,4.19,7.43,5.14c3.62,1.14,7.05,1.14,9.71-0.19c2.67-1.14,5.14-3.05,7.05-5.33
		c1.9-2.29,4-5.33,6.29-9.33c2.1-3.43,4-6.1,5.33-8c1.33-1.71,3.05-3.05,4.95-4c1.71-0.76,3.62-0.95,5.9-0.19
		c3.05,0.95,5.14,2.86,6.1,6.1c1.14,3.05,0.95,7.24-0.76,12.38c-0.76,2.48-2.1,5.14-3.62,7.43c-1.52,2.29-3.62,4.38-5.71,6.1
		l-1.14,0.95l4.76,4.38l0.76-0.57c2.48-1.9,4.57-4.19,6.67-7.05c1.9-2.86,3.43-5.9,4.57-9.14c1.52-4.76,2.1-8.95,1.71-12.57
		C971.98,629.42,970.84,626.37,968.74,623.89z"/>
	<path d="M691.42,873.03c-4-3.81-8.95-6.48-14.48-7.81c-5.52-1.33-11.24-1.14-17.14,0.57c-4.19,1.14-8,3.05-11.24,5.33
		c-3.43,2.48-6.1,5.33-8,8.57l-0.19,0.38l6.67,23.43l6.48-1.9l-5.9-20.57c3.24-4.19,7.81-7.24,13.9-9.14
		c4.76-1.33,9.33-1.52,13.71-0.38c4.38,0.95,8.19,3.05,11.43,6.29c3.24,3.05,5.52,6.86,6.86,11.43c1.33,4.57,1.33,9.14,0.38,13.33
		c-1.14,4.38-3.24,8-6.48,11.24s-7.24,5.52-12,6.86c-3.43,0.95-6.86,1.33-10.09,1.14c-3.05-0.19-6.29-1.14-9.14-2.86l-1.14-0.57
		l-3.05,5.71l0.95,0.57c3.43,1.9,7.24,3.05,11.43,3.43c0.95,0,1.71,0.19,2.67,0.19c3.24,0,6.67-0.57,10.09-1.52
		c5.9-1.71,11.05-4.57,15.05-8.57c4-4,6.86-8.76,8.19-14.09c1.33-5.33,1.33-11.05-0.38-16.76
		C698.27,881.6,695.42,876.84,691.42,873.03z"/>
	<polygon points="463.23,918.36 439.42,859.31 434.28,857.79 416.76,918.17 423.42,920.08 437.33,871.89 460.95,930.93 
		466.28,932.46 483.8,872.27 477.14,870.36 	"/>
	<rect x="516.8" y="54.36" transform="matrix(0.5465 -0.8375 0.8375 0.5465 -248.4041 697.4508)" width="5.9" height="1047.44"/>
</g>
</svg>
