<?xml version="1.0" encoding="utf-8"?>
<!-- Generator: Adobe Illustrator 28.0.0, SVG Export Plug-In . SVG Version: 6.00 Build 0)  -->
<svg version="1.1" id="Layer_1" xmlns="http://www.w3.org/2000/svg" xmlns:xlink="http://www.w3.org/1999/xlink" x="0px" y="0px"
	 viewBox="0 0 1080 1080" style="enable-background:new 0 0 1080 1080;" xml:space="preserve">
<style type="text/css">
	.st0{fill:#FFFFFF;}
</style>
<g>
	<path class="st0" d="M194.3,548.8c-1.9-3.2-4.4-5.5-7.2-6.9s-5.9-1.9-8.9-1.3c-3.8,0.6-6.9,1.9-8.8,4.4c-1.9,2.3-3.2,5-4,7.8
		s-1.3,6.5-1.7,11c-0.4,4-0.9,7-1.5,9.5c-0.6,2.3-1.3,4.2-2.7,5.7c-1.1,1.5-2.9,2.5-5.3,2.7c-3.2,0.4-5.9-0.6-8.2-2.9
		c-2.5-2.3-4-6.1-4.6-11.4c-0.4-2.7-0.4-5.5,0.2-8.4c0.4-2.9,1.3-5.5,2.7-8l0.6-1.3l-6.1-1.9l-0.4,1c-1.3,2.7-2.3,5.7-3.1,9.1
		c-0.6,3.4-0.6,6.9-0.2,10.3c0.6,5,1.9,9,3.8,12c1.9,3.2,4.4,5.5,7.2,6.7c2.1,1,4.4,1.5,6.7,1.5c0.8,0,1.5,0,2.3-0.2
		c3.8-0.6,6.9-1.9,8.9-4.4c2.1-2.3,3.4-5,4.2-7.8c0.8-2.9,1.3-6.5,1.7-11c0.4-3.8,0.9-7,1.3-9.3c0.6-2.3,1.3-4.2,2.7-5.7
		c1.1-1.5,2.9-2.5,5.3-2.7c3.1-0.4,5.7,0.6,8,2.9c2.3,2.5,4,6.3,4.6,11.8c0.6,3.8,0.4,7.4-0.6,11c-0.9,3.6-2.3,6.5-4,8.8l-0.9,1.3
		l5.9,2.5l0.6-0.8c2.3-2.7,3.8-6.3,4.9-10.5c0.9-4.2,1.1-8.8,0.6-13.3C197.5,556.1,196.2,551.9,194.3,548.8z"/>
	<path class="st0" d="M305.7,248.9l-13.1-14.7l12-10.7c1.1-1.1,2.5-2.3,3.6-3.8l24,5.5l5.9-5.3l-25.9-5.9c2.1-3.8,2.9-7.6,2.7-11.4
		c-0.4-4.4-2.3-8.4-5.5-12.2c-4.4-4.9-9.7-7.4-15.6-7.2c-5.9,0.2-11.8,2.9-17.7,8.2l-17.1,15.2l41.7,47.1L305.7,248.9z M268.4,206.6
		l12-10.7c4.6-4,9-6.1,13.1-6.3c4-0.2,7.6,1.5,10.9,5.3c3.2,3.6,4.6,7.4,4,11.4c-0.6,4-3.2,8.2-7.8,12.2l-12,10.7L268.4,206.6z"/>
	<polygon class="st0" points="516.4,147.3 515.2,141.1 478.7,148.1 474.5,126.2 505.9,120.3 504.8,114 473.3,120.1 469.1,99.1 
		504.6,92.3 503.2,86 461.3,94 473.1,155.7 	"/>
	<path class="st0" d="M839.8,266.4c3.2,1,6.3,1.5,9.5,1.5c2.3,0,4.6-0.2,6.9-0.8c5.3-1.3,10.3-4,14.5-8.2c4.4-4.2,7.2-8.9,8.8-14.3
		c1.5-5.3,1.3-10.9-0.2-16.2c-1.5-5.5-4.6-10.7-9.1-15.2l-17.3-18.1l-45.1,43.6l17.3,18.1C829.3,261.4,834.3,264.7,839.8,266.4z
		 M816.9,239.1l36-34.7l12.4,12.9c3.6,3.8,6.3,8,7.6,12.4s1.3,8.6,0.2,12.8s-3.6,8-7,11.4s-7.4,5.7-11.6,6.7
		c-4.2,1-8.6,0.8-12.8-0.6c-4.4-1.5-8.4-4.2-12.2-8L816.9,239.1z"/>
	<polygon class="st0" points="977.3,401.6 916,414.9 925.5,458 931.8,456.7 923.8,420.3 945.5,415.5 952.4,446.9 958.7,445.6 
		951.8,414.2 972.5,409.6 980.2,444.7 986.5,443.3 	"/>
	<path class="st0" d="M968.7,623.9c-1.9-2.5-4.6-4.2-7.6-5.1c-3.6-1.1-7-1.1-9.9,0c-2.9,1.1-5.1,3-7,5.3c-1.9,2.3-4,5.3-6.5,9.3
		c-2.1,3.4-3.8,6.1-5.3,8c-1.3,1.7-3,3-5,4c-1.7,0.8-3.6,1-5.9,0.2c-3-1-5-2.9-5.9-6.1c-1.1-3.2-0.8-7.4,1-12.6
		c1.1-3.6,2.9-6.9,5.3-9.7c2.3-2.9,4.8-5,7.4-6.1l1.5-0.8l-4.2-4.8l-0.8,0.4c-3,1.5-6.1,4-9,7.4l0,0c-2.7,3.4-4.8,7.4-6.3,11.6
		c-1.5,4.8-2.1,9-1.7,12.6c0.4,3.8,1.5,6.9,3.6,9.3c1.9,2.5,4.4,4.2,7.4,5.1c3.6,1.1,7,1.1,9.7-0.2c2.7-1.1,5.1-3,7-5.3
		c1.9-2.3,4-5.3,6.3-9.3c2.1-3.4,4-6.1,5.3-8c1.3-1.7,3-3,5-4c1.7-0.8,3.6-1,5.9-0.2c3,1,5.1,2.9,6.1,6.1c1.1,3,1,7.2-0.8,12.4
		c-0.8,2.5-2.1,5.1-3.6,7.4s-3.6,4.4-5.7,6.1l-1.1,1l4.8,4.4l0.8-0.6c2.5-1.9,4.6-4.2,6.7-7c1.9-2.9,3.4-5.9,4.6-9.1
		c1.5-4.8,2.1-9,1.7-12.6C972,629.4,970.8,626.4,968.7,623.9z"/>
	<path class="st0" d="M691.4,873c-4-3.8-9-6.5-14.5-7.8c-5.5-1.3-11.2-1.1-17.1,0.6c-4.2,1.1-8,3-11.2,5.3c-3.4,2.5-6.1,5.3-8,8.6
		l-0.2,0.4l6.7,23.4l6.5-1.9l-5.9-20.6c3.2-4.2,7.8-7.2,13.9-9.1c4.8-1.3,9.3-1.5,13.7-0.4c4.4,1,8.2,3,11.4,6.3
		c3.2,3,5.5,6.9,6.9,11.4c1.3,4.6,1.3,9.1,0.4,13.3c-1.1,4.4-3.2,8-6.5,11.2s-7.2,5.5-12,6.9c-3.4,1-6.9,1.3-10.1,1.1
		c-3-0.2-6.3-1.1-9.1-2.9l-1.1-0.6l-3,5.7l1,0.6c3.4,1.9,7.2,3,11.4,3.4c1,0,1.7,0.2,2.7,0.2c3.2,0,6.7-0.6,10.1-1.5
		c5.9-1.7,11-4.6,15-8.6s6.9-8.8,8.2-14.1s1.3-11-0.4-16.8C698.3,881.6,695.4,876.8,691.4,873z"/>
	<polygon class="st0" points="463.2,918.4 439.4,859.3 434.3,857.8 416.8,918.2 423.4,920.1 437.3,871.9 461,930.9 466.3,932.5 
		483.8,872.3 477.1,870.4 	"/>
	
		<rect x="516.8" y="54.3" transform="matrix(0.5465 -0.8375 0.8375 0.5465 -248.3957 697.4724)" class="st0" width="5.9" height="1047.5"/>
</g>
</svg>
